# xmcd
#
# Track frame offsets: 
#        150
#        9291
#        26014
#        48423
#        68214
#        77324
#        95754
#        107111
#        123764
#        138199
#        154366
#        167259
#        179196
#        194548
#        212515
#
# Disc length: 3048 seconds
#
# Revision: 0
# Processed by: cddbd v1.5.2PL0 Copyright (c) Steve Scherf et al.
# Submitted via: ExactAudioCopy v1.3
#
DISCID=c30be60f
DTITLE=Doc Watson and David Grisman - Doc and Dawg
DYEAR=1997
DGENRE=Dawg
TTITLE0=Doc and Dawg
TTITLE1=All About You
TTITLE2=Bluegrass Stomp
TTITLE3=Summertime
TTITLE4=Sweet Georgia Brown
TTITLE5=Frankie and Johnnie
TTITLE6=Soldier's Joy
TTITLE7=What Is Home Without Love
TTITLE8=Fiddle -Tune Medley
TTITLE9=Kentucky Waltz
TTITLE10=My Dear Old Southern Home
TTITLE11=Florida Blues
TTITLE12=Blue As I Can Be
TTITLE13=Watson Blues
TTITLE14=Bye Bye Blues
EXTD=
EXTT0=
EXTT1=
EXTT2=
EXTT3=
EXTT4=
EXTT5=
EXTT6=
EXTT7=
EXTT8=
EXTT9=
EXTT10=
EXTT11=
EXTT12=
EXTT13=
EXTT14=
PLAYORDER=
